# xmcd CD database file
#
# Track frame offsets:
#	150
#	869
#	22681
#	43216
#	63062
#	84341
#	102192
#	122562
#	146744
#	166261
#	185144
#	207901
#	222269
#	242962
#	260897
#	281326
#
# Disc length: 4116 seconds
#
# Revision: 0
# Processed by: cddbd v1.5.1PL0 Copyright (c) Steve Scherf et al.
# Submitted via: CDex 1.51
#
DISCID=da101210
DTITLE=Krakowczyk Trio - Dedicated To Dennis
DYEAR=1993
DGENRE=Jazz
TTITLE0=Dennis Busby
TTITLE1=Love For Sale (C. Porter)
TTITLE2=Up Jumped Spring (F. Hubbard)
TTITLE3=You'd Be So Nice To Come Home To (C. Porter)
TTITLE4=Jeannine (D. Pearson)
TTITLE5=Backstage Sally (W. Shorter)
TTITLE6=Along Come Betty (B. Golson)
TTITLE7=Polkadots and Moonbeams (J. Van Heusen)
TTITLE8=The Shadow Of Your Smile (J. Mandel)
TTITLE9=Red Top ( L. Hampton)
TTITLE10=Star Eyes (G. De Paul)
TTITLE11=Minority (G. Grice)
TTITLE12=Easy Living (R. Rainger)
TTITLE13=Alone Together (A. Schwartz)
TTITLE14=Speak Now (K. Weill)
TTITLE15=My One And Only Love (R. Mellin | G. Wood)
EXTD=YEAR: 1993
EXTT0=
EXTT1=
EXTT2=
EXTT3=
EXTT4=
EXTT5=
EXTT6=
EXTT7=
EXTT8=
EXTT9=
EXTT10=
EXTT11=
EXTT12=
EXTT13=
EXTT14=
EXTT15=
PLAYORDER=
